<svg xmlns="http://www.w3.org/2000/svg" viewBox="0 0 1200 420">
<rect x="0" y="0" width="1200" height="420" fill="#f8fafc" />
<text x="600" y="22" text-anchor="middle" font-size="16" font-weight="600" fill="#0f172a">Cumulative Month swift Files (2026-01 - 2026-02)</text>
<line x1="60" y1="340" x2="1180" y2="340" stroke="#cbd5e1" stroke-width="1" />
<g font-family="monospace" font-size="11" fill="#1e293b">
<line x1="60" y1="340.0" x2="1180" y2="340.0" stroke="#e2e8f0" stroke-width="1" />
<text x="52" y="343.0" text-anchor="end">0</text>
<line x1="60" y1="263.06024096385545" x2="1180" y2="263.06024096385545" stroke="#e2e8f0" stroke-width="1" />
<text x="52" y="266.06024096385545" text-anchor="end">103</text>
<line x1="60" y1="186.12048192771084" x2="1180" y2="186.12048192771084" stroke="#e2e8f0" stroke-width="1" />
<text x="52" y="189.12048192771084" text-anchor="end">206</text>
<line x1="60" y1="109.18072289156626" x2="1180" y2="109.18072289156626" stroke="#e2e8f0" stroke-width="1" />
<text x="52" y="112.18072289156626" text-anchor="end">309</text>
<line x1="60" y1="32.24096385542168" x2="1180" y2="32.24096385542168" stroke="#e2e8f0" stroke-width="1" />
<text x="52" y="35.24096385542168" text-anchor="end">412</text>
</g>
<g font-family="monospace">
<rect x="60.0" y="61.373493975903614" width="559.0" height="278.6265060240964" fill="#0f766e" rx="2"/>
<text x="339.5" y="370" transform="rotate(-45 339.5,370)" text-anchor="middle" font-size="8" fill="#334155">2026-01</text>
<text x="339.5" y="57" text-anchor="middle" font-size="9" fill="#334155">373</text>
<rect x="621.0" y="30.0" width="559.0" height="310.0" fill="#0f766e" rx="2"/>
<text x="900.5" y="370" transform="rotate(-45 900.5,370)" text-anchor="middle" font-size="8" fill="#334155">2026-02</text>
<text x="900.5" y="26" text-anchor="middle" font-size="9" fill="#334155">415</text>
</g>
</svg>