<svg xmlns="http://www.w3.org/2000/svg" viewBox="0 0 900 420">
<rect x="0" y="0" width="900" height="420" fill="#f8fafc" />
<text x="450" y="22" text-anchor="middle" font-size="16" font-weight="600" fill="#0f172a">Cumulative `Package.swift` Activity (2026-01 - 2026-02)</text>
<line x1="60" y1="340" x2="880" y2="340" stroke="#cbd5e1" stroke-width="1" />
<g font-family="monospace" font-size="11" fill="#1e293b">
<line x1="60" y1="340.0" x2="880" y2="340.0" stroke="#e2e8f0" stroke-width="1" />
<text x="52" y="343.0" text-anchor="end">0</text>
<line x1="60" y1="263.6453201970443" x2="880" y2="263.6453201970443" stroke="#e2e8f0" stroke-width="1" />
<text x="52" y="266.6453201970443" text-anchor="end">50</text>
<line x1="60" y1="187.29064039408865" x2="880" y2="187.29064039408865" stroke="#e2e8f0" stroke-width="1" />
<text x="52" y="190.29064039408865" text-anchor="end">100</text>
<line x1="60" y1="110.93596059113301" x2="880" y2="110.93596059113301" stroke="#e2e8f0" stroke-width="1" />
<text x="52" y="113.93596059113301" text-anchor="end">150</text>
<line x1="60" y1="34.58128078817731" x2="880" y2="34.58128078817731" stroke="#e2e8f0" stroke-width="1" />
<text x="52" y="37.58128078817731" text-anchor="end">200</text>
</g>
<g font-family="monospace">
<rect x="60.0" y="259.06403940886696" width="406.0" height="80.93596059113301" fill="#ef4444" rx="2"/>
<text x="263.0" y="370" transform="rotate(-45 263.0,370)" text-anchor="middle" font-size="10" fill="#334155">2026-01</text>
<text x="263.0" y="253" text-anchor="middle" font-size="10" fill="#334155">53</text>
<rect x="474.0" y="30.0" width="406.0" height="310.0" fill="#ef4444" rx="2"/>
<text x="677.0" y="370" transform="rotate(-45 677.0,370)" text-anchor="middle" font-size="10" fill="#334155">2026-02</text>
<text x="677.0" y="24" text-anchor="middle" font-size="10" fill="#334155">203</text>
</g>
</svg>