<svg xmlns="http://www.w3.org/2000/svg" viewBox="0 0 1200 420">
<rect x="0" y="0" width="1200" height="420" fill="#f8fafc" />
<text x="600" y="22" text-anchor="middle" font-size="16" font-weight="600" fill="#0f172a">Cumulative Month md Files (2026-01 - 2026-02)</text>
<line x1="60" y1="340" x2="1180" y2="340" stroke="#cbd5e1" stroke-width="1" />
<g font-family="monospace" font-size="11" fill="#1e293b">
<line x1="60" y1="340.0" x2="1180" y2="340.0" stroke="#e2e8f0" stroke-width="1" />
<text x="52" y="343.0" text-anchor="end">0</text>
<line x1="60" y1="262.52430228911885" x2="1180" y2="262.52430228911885" stroke="#e2e8f0" stroke-width="1" />
<text x="52" y="265.52430228911885" text-anchor="end">797</text>
<line x1="60" y1="185.0486045782377" x2="1180" y2="185.0486045782377" stroke="#e2e8f0" stroke-width="1" />
<text x="52" y="188.0486045782377" text-anchor="end">1594</text>
<line x1="60" y1="107.57290686735652" x2="1180" y2="107.57290686735652" stroke="#e2e8f0" stroke-width="1" />
<text x="52" y="110.57290686735652" text-anchor="end">2391</text>
<line x1="60" y1="30.0972091564754" x2="1180" y2="30.0972091564754" stroke="#e2e8f0" stroke-width="1" />
<text x="52" y="33.0972091564754" text-anchor="end">3188</text>
</g>
<g font-family="monospace">
<rect x="60.0" y="134.2082157416118" width="559.0" height="205.7917842583882" fill="#8b5cf6" rx="2"/>
<text x="339.5" y="370" transform="rotate(-45 339.5,370)" text-anchor="middle" font-size="8" fill="#334155">2026-01</text>
<text x="339.5" y="130" text-anchor="middle" font-size="9" fill="#334155">2117</text>
<rect x="621.0" y="30.0" width="559.0" height="310.0" fill="#8b5cf6" rx="2"/>
<text x="900.5" y="370" transform="rotate(-45 900.5,370)" text-anchor="middle" font-size="8" fill="#334155">2026-02</text>
<text x="900.5" y="26" text-anchor="middle" font-size="9" fill="#334155">3189</text>
</g>
</svg>